<svg width="90" height="28" viewBox="0 0 90 28" fill="none" xmlns="http://www.w3.org/2000/svg">
<g clip-path="url(#clip0_56_605)">
<path d="M47.2971 7.03512C47.2971 8.04422 46.484 8.85676 45.4749 8.85676C44.4658 8.85676 43.6533 8.04422 43.6533 7.03512C43.6533 6.02602 44.4381 5.21347 45.4749 5.21347C46.5126 5.24147 47.2971 6.0543 47.2971 7.03512ZM39.7854 10.707V11.1555C39.7854 11.1555 38.9169 10.0339 37.067 10.0339C34.0122 10.0339 31.6295 12.3603 31.6295 15.5833C31.6295 18.7786 33.9842 21.1328 37.067 21.1328C38.9449 21.1328 39.7854 19.9837 39.7854 19.9837V20.46C39.7854 20.6843 39.954 20.852 40.178 20.852H42.4479V10.3133H40.178C39.954 10.3141 39.7854 10.5107 39.7854 10.707ZM39.7854 17.4613C39.3654 18.0781 38.5243 18.6106 37.5155 18.6106C35.7219 18.6106 34.3482 17.4895 34.3482 15.5833C34.3482 13.6774 35.7219 12.5563 37.5155 12.5563C38.4966 12.5563 39.3934 13.1169 39.7854 13.7054V17.4613ZM44.1298 10.3141H46.8203V20.8528H44.1298V10.3141ZM84.3216 10.0336C82.4717 10.0336 81.6026 11.1552 81.6026 11.1552V5.24147H78.9121V20.8528H81.1826C81.4069 20.8528 81.5746 20.6566 81.5746 20.4603V19.984C81.5746 19.984 82.4437 21.1331 84.293 21.1331C87.3483 21.1331 89.7305 18.7795 89.7305 15.5842C89.7305 12.3889 87.3483 10.0336 84.3216 10.0336ZM83.8731 18.5824C82.8357 18.5824 82.0231 18.0504 81.6026 17.4333V13.6774C82.0231 13.1169 82.92 12.5283 83.8731 12.5283C85.6667 12.5283 87.0401 13.6494 87.0401 15.5553C87.0401 17.4613 85.667 18.5824 83.8731 18.5824ZM77.511 14.6028V20.8808H74.82V14.9108C74.82 13.1734 74.2594 12.4723 72.7469 12.4723C71.9344 12.4723 71.0933 12.8929 70.5599 13.5097V20.8531H67.87V10.3144H69.9993C70.2236 10.3144 70.3919 10.5107 70.3919 10.707V11.1555C71.1767 10.3424 72.2135 10.0339 73.2503 10.0339C74.4277 10.0339 75.4088 10.3707 76.1936 11.0432C77.1462 11.8281 77.511 12.8369 77.511 14.6028ZM61.3385 10.0336C59.4892 10.0336 58.6201 11.1552 58.6201 11.1552V5.24147H55.9296V20.8528H58.1995C58.4238 20.8528 58.5921 20.6566 58.5921 20.4603V19.984C58.5921 19.984 59.4612 21.1331 61.3105 21.1331C64.3658 21.1331 66.748 18.7795 66.748 15.5842C66.776 12.3886 64.3938 10.0336 61.3385 10.0336ZM60.89 18.5824C59.8532 18.5824 59.0406 18.0504 58.6201 17.4333V13.6774C59.0406 13.1169 59.9375 12.5283 60.89 12.5283C62.6842 12.5283 64.0573 13.6494 64.0573 15.5553C64.0573 17.4613 62.6842 18.5824 60.89 18.5824ZM53.6031 10.0336C54.4157 10.0336 54.8362 10.1741 54.8362 10.1741V12.6683C54.8362 12.6683 52.594 11.9115 51.193 13.5094V20.8806H48.5019V10.3141H50.7724C50.9967 10.3141 51.1644 10.5104 51.1644 10.7067V11.1552C51.6695 10.5664 52.7626 10.0336 53.6031 10.0336ZM25.66 19.8997C25.52 19.5635 25.3797 19.1992 25.2397 18.8906C25.0152 18.3864 24.7909 17.9095 24.5952 17.4613L24.5672 17.4333C22.633 13.2289 20.5593 8.96904 18.3728 4.7652L18.2888 4.59664C18.0589 4.16054 17.8348 3.72138 17.6166 3.27927C17.336 2.77444 17.056 2.24245 16.6075 1.73762C15.7107 0.616523 14.4213 -0.000305176 13.0482 -0.000305176C11.6465 -0.000305176 10.3854 0.616526 9.4609 1.68134C9.04035 2.18561 8.7318 2.71817 8.4518 3.223C8.23306 3.66483 8.00895 4.10398 7.77953 4.54037L7.69526 4.70892C5.53706 8.91276 3.43514 13.1729 1.50122 17.377L1.47294 17.4327C1.27695 17.8818 1.05239 18.3581 0.828115 18.8621C0.688118 19.1706 0.548121 19.5069 0.408123 19.8712C0.0435707 20.908 -0.0687124 21.8891 0.0718448 22.8985C0.380119 25.0007 1.78121 26.7658 3.71541 27.5511C4.44424 27.8597 5.20106 27.9997 5.98561 27.9997C6.20988 27.9997 6.48988 27.9717 6.71444 27.9434C7.63954 27.8314 8.59236 27.5234 9.51746 26.9909C10.6666 26.346 11.7597 25.4215 12.9927 24.0761C14.2258 25.4215 15.3469 26.346 16.468 26.9909C17.3934 27.5234 18.346 27.8314 19.2708 27.9434C19.4951 27.972 19.7756 27.9997 19.9999 27.9997C20.7847 27.9997 21.5693 27.8597 22.2698 27.5511C24.232 26.7658 25.6051 24.9727 25.9136 22.8985C26.1362 21.9177 26.0242 20.9371 25.66 19.8997ZM13.0199 21.3571C11.5063 19.4512 10.5252 17.6575 10.1892 16.1445C10.0492 15.4996 10.0209 14.9391 10.1052 14.4345C10.1609 13.986 10.3294 13.5934 10.5537 13.2571C11.0863 12.5009 11.9831 12.0241 13.0202 12.0241C14.0576 12.0241 14.9824 12.4726 15.4869 13.2571C15.7112 13.5934 15.8792 13.9863 15.9358 14.4345C16.0195 14.9394 15.9915 15.5276 15.8515 16.1445C15.5141 17.6295 14.533 19.4235 13.0199 21.3571ZM24.2023 22.6745C24.0063 24.1319 23.0252 25.3935 21.6521 25.954C20.9796 26.234 20.2505 26.3183 19.5222 26.234C18.8217 26.1498 18.1206 25.9255 17.3923 25.5055C16.3832 24.9444 15.3744 24.0761 14.197 22.7865C16.0467 20.5166 17.1678 18.4421 17.5883 16.5927C17.7846 15.7236 17.8129 14.9391 17.7283 14.21C17.6166 13.5094 17.364 12.8646 16.9717 12.304C16.1024 11.0424 14.6447 10.3141 13.0196 10.3141C11.3945 10.3141 9.93689 11.071 9.06807 12.304C8.67579 12.8646 8.42324 13.5094 8.31124 14.21C8.19924 14.9391 8.22696 15.7516 8.45124 16.5927C8.87151 18.4421 10.0206 20.5443 11.8423 22.8145C10.6932 24.1039 9.65606 24.973 8.64696 25.5335C7.91813 25.9541 7.21787 26.1783 6.51732 26.2621C5.76078 26.3463 5.03167 26.2341 4.38712 25.9821C3.01403 25.4215 2.03293 24.1599 1.83693 22.7025C1.75294 22.0019 1.80865 21.3014 2.08921 20.5166C2.17293 20.236 2.31348 19.956 2.45348 19.6197C2.64976 19.1712 2.87347 18.6944 3.09803 18.2181L3.12631 18.1624C5.05995 13.986 7.13387 9.72586 9.29207 5.57802L9.37606 5.40947C9.60062 4.98948 9.8249 4.54093 10.0489 4.12037C10.2732 3.67182 10.5252 3.25127 10.8337 2.88672C11.4223 2.21473 12.2068 1.8499 13.0759 1.8499C13.945 1.8499 14.7296 2.21473 15.3181 2.88672C15.6267 3.25211 15.8787 3.67266 16.1029 4.12037C16.3275 4.54093 16.5518 4.98948 16.7755 5.40947L16.8598 5.57802C18.985 9.74309 21.0314 13.948 22.9978 18.1904V18.2184C23.2223 18.6675 23.4183 19.1715 23.6426 19.6206C23.7826 19.9563 23.9229 20.2363 24.0069 20.5169C24.2306 21.2448 24.3146 21.9459 24.2023 22.6745Z" fill="#909090"/>
</g>
<defs>
<clipPath id="clip0_56_605">
<rect width="89.7436" height="28" fill="white"/>
</clipPath>
</defs>
</svg>
