<svg width="154" height="40" viewBox="0 0 154 40" fill="none" xmlns="http://www.w3.org/2000/svg">
<path d="M76.2829 17.9815H76.2292L74.6234 22.5158H77.8708L76.2829 17.9815ZM79.1591 26.0943L78.3673 23.8636H74.1716L73.3844 26.0943H71.5862L75.3525 16.1753H77.352L81.0601 26.0943H79.1591ZM94.3807 15.7728H96.1342V17.4336H94.3807V15.7728ZM94.3807 18.5348H96.0939V26.0943H94.3763L94.3807 18.5348ZM81.7176 15.7728H83.4755V17.4336H81.7176V15.7728ZM81.7176 18.5348H83.4353V26.0943H81.7176V18.5348ZM92.4887 15.7839H90.7755V26.0943H92.4887V15.7839ZM87.0271 22.4098V26.0943H85.3005V20.4806C85.3005 19.9385 85.2424 18.9097 85.22 18.5407H86.6066C86.7542 18.5407 86.8034 18.6019 86.8034 18.7473V19.6867H86.8571C86.9913 19.357 87.4789 18.3783 88.9013 18.3783C89.3799 18.3783 89.7333 18.5348 89.7914 18.5572C89.7914 18.8815 89.7377 19.5972 89.7377 19.7873C89.7377 19.9103 89.6707 19.9497 89.6125 19.9497C89.5499 19.9497 89.523 19.9497 89.4962 19.8938C89.3889 19.8378 89.1384 19.7761 88.7895 19.7761C87.8725 19.7761 87.0182 20.4359 87.0182 22.3816M102.633 26.0665V21.1851C102.633 20.2516 102.209 19.6867 101.417 19.6867C100.361 19.6867 99.6634 20.8107 99.6634 22.3204V26.0665H97.9457V20.5142C97.9457 19.9049 97.8876 19.0103 97.8608 18.5125H99.2384C99.395 18.5125 99.4397 18.5742 99.4397 18.7138V19.6589H99.4934C99.6992 19.3011 100.227 18.3506 101.81 18.3506C103.434 18.3506 104.347 19.463 104.347 20.7154V26.0665H102.633ZM107.384 21.5094H110.56C110.627 20.2905 109.983 19.6084 109.021 19.6084C108.01 19.6084 107.429 20.3411 107.384 21.5094ZM111.615 24.4057C111.709 24.4057 111.741 24.4898 111.745 24.5734C111.799 24.8977 111.808 25.6246 111.799 25.8093C111.615 25.8706 110.694 26.2119 109.459 26.2119C107.048 26.2119 105.604 24.9648 105.604 22.2868C105.604 19.9886 106.834 18.3506 109.052 18.3506C111.231 18.3506 112.268 19.8097 112.268 21.6159C112.268 21.8283 112.268 22.1862 112.21 22.667H107.361C107.361 23.953 108.189 24.8812 109.705 24.8812C110.542 24.8812 111.208 24.5792 111.472 24.4504C111.526 24.4504 111.553 24.3945 111.615 24.3945M115.637 26.2007C117.869 26.2007 118.933 25.2837 118.933 23.9307C118.933 22.5941 117.985 22.0296 116.978 21.6995C116.692 21.6047 116.406 21.5094 116.146 21.4199C115.458 21.1963 115.1 20.8944 115.1 20.4471C115.1 19.9774 115.529 19.6477 116.424 19.6477C117.22 19.6477 117.869 19.972 118.124 20.095C118.182 20.095 118.2 20.151 118.267 20.151C118.325 20.151 118.392 20.095 118.405 19.9886C118.405 19.7314 118.459 19.2729 118.459 18.8314C118.249 18.7361 117.497 18.3506 116.29 18.3506C114.447 18.3506 113.311 19.3123 113.311 20.5759C113.311 21.806 114.151 22.3651 115.077 22.6724C115.288 22.7453 115.681 22.8737 115.914 22.952C116.876 23.2709 117.148 23.5616 117.148 24.0143C117.148 24.6016 116.522 24.8924 115.444 24.8924C114.563 24.8924 113.955 24.5681 113.713 24.4504C113.655 24.4504 113.633 24.3945 113.561 24.3945C113.44 24.3945 113.431 24.5622 113.431 24.5904C113.431 24.6741 113.378 25.4569 113.378 25.714C113.579 25.8035 114.456 26.2007 115.628 26.2007M14.5373 17.9422H14.4836L12.8733 22.4769H16.1163L14.5373 17.9422ZM17.4135 26.0553L16.6262 23.8242H12.4216L11.6388 26.0553H9.84064L13.6069 16.1306H15.6019L19.31 26.0553H17.4135ZM45.4369 15.7338H47.1904V17.3942H45.4369V15.7338ZM45.4369 18.4959H47.1546V26.0943H45.4369V18.4959ZM41.7556 22.3705V26.0553H40.0425V20.4417C40.0425 19.8991 39.9799 18.8703 39.9575 18.4959H41.3397C41.4873 18.4959 41.5365 18.563 41.5365 18.7084V19.6477H41.5901C41.7243 19.3176 42.2119 18.3394 43.6343 18.3394C44.1129 18.3394 44.4708 18.4959 44.5244 18.5183C44.5244 18.8426 44.4708 19.5583 44.4708 19.7484C44.4708 19.8714 44.4037 19.9103 44.3411 19.9103C44.2784 19.9103 44.2516 19.9103 44.2248 19.8544C44.1129 19.7985 43.8669 19.7314 43.518 19.7314C42.6055 19.7314 41.7467 20.397 41.7467 22.3427M29.0746 26.0272V21.1909C29.0746 20.3187 28.7123 19.6477 27.8222 19.6477C26.8247 19.6477 26.2432 20.7378 26.2432 22.2756V26.0272H24.53V21.1739C24.53 20.3858 24.199 19.6477 23.2776 19.6477C22.2667 19.6477 21.6941 20.7378 21.6941 22.3315V26.0272H19.981V20.52C19.981 19.8097 19.9184 18.809 19.896 18.4678H21.2647C21.4213 18.4678 21.4705 18.5237 21.4794 18.6802V19.6196H21.5331C21.6405 19.4017 22.2041 18.3112 23.783 18.3112C25.2457 18.3112 25.8049 19.3624 25.9435 19.6867C26.0777 19.4017 26.7352 18.3112 28.2113 18.3112C29.7456 18.3112 30.7967 19.1387 30.7967 20.7937V26.0272H29.0746ZM33.825 21.4705H37.0008C37.0679 20.2516 36.4283 19.5695 35.4621 19.5695C34.4512 19.5695 33.8742 20.3017 33.825 21.4705ZM38.0565 24.3668C38.1504 24.3668 38.1772 24.4504 38.1862 24.5345C38.2399 24.8588 38.2443 25.5857 38.2399 25.77C38.0565 25.8317 37.135 26.1725 35.896 26.1725C33.4895 26.1725 32.0447 24.9259 32.0447 22.2475C32.0447 19.9497 33.2748 18.3112 35.4979 18.3112C37.6718 18.3112 38.7095 19.7707 38.7095 21.5765C38.7095 21.789 38.7095 22.1468 38.6469 22.6223H33.8071C33.8071 23.9137 34.6301 24.8418 36.142 24.8418C36.9829 24.8418 37.6494 24.5399 37.9178 24.4115C37.9715 24.4115 37.9938 24.3556 38.0609 24.3556M59.5717 22.1804H59.2809C57.1294 22.1804 56.7045 22.9296 56.7045 23.69C56.7045 24.3109 57.1115 24.9035 57.9167 24.9035C58.9902 24.9035 59.5717 23.8689 59.5717 22.7842V22.1804ZM59.9877 26.016C59.849 26.016 59.7327 25.9601 59.7148 25.77C59.7148 25.5239 59.6612 25.0431 59.6612 25.0431C59.5583 25.1831 58.9321 26.1614 57.362 26.1614C55.8591 26.1614 54.9958 24.9984 54.9958 23.7294C54.9958 21.9625 56.709 21.0791 59.2541 21.0791H59.5896V20.7995C59.5896 20.0109 59.0215 19.586 57.9748 19.586C57.0265 19.586 56.2393 19.9161 55.9351 20.0727C55.9351 20.0727 55.8591 20.1286 55.8099 20.1286C55.7249 20.1286 55.6802 20.0727 55.6757 19.9886C55.6757 19.7037 55.6175 19.1557 55.6175 18.809C55.9306 18.6914 56.955 18.3112 58.0822 18.3112C60.3321 18.3112 61.2938 19.3512 61.2938 21.0174V23.9642C61.2938 25.0377 61.3922 25.7422 61.4325 26.0272L59.9877 26.016ZM54.0609 24.3556C54.1146 24.3556 54.1728 24.3556 54.1817 24.5175C54.2354 24.8754 54.2354 25.468 54.2354 25.6528C53.8954 25.8205 53.1529 26.1614 52.2404 26.1614C49.9547 26.1614 48.5502 24.8306 48.5502 22.2309C48.5502 19.7985 49.7981 18.3 52.2404 18.3C53.0545 18.3 53.8015 18.5854 54.2354 18.809C54.2354 19.0774 54.1817 19.6867 54.1817 19.9439C54.1817 20.0503 54.1236 20.1004 54.0609 20.1004C53.9894 20.1004 53.967 20.1004 53.9223 20.0445C53.3766 19.7761 52.8577 19.6419 52.388 19.6419C50.9343 19.6419 50.3304 20.5983 50.3304 22.2085C50.3304 23.6453 50.809 24.7693 52.388 24.7693C52.9919 24.7693 53.5376 24.5569 53.8775 24.3945C53.9759 24.3386 53.9849 24.3332 54.0609 24.3332M67.4666 25.9936V21.1127C67.4666 20.1787 67.0416 19.6142 66.2499 19.6142C65.1898 19.6142 64.4875 20.7324 64.4875 22.2475V25.9936H62.7744V20.4417C62.7744 19.832 62.7207 18.9374 62.6939 18.4342H64.0671C64.2236 18.4342 64.2684 18.5013 64.2684 18.6413V19.586H64.3265C64.5323 19.2282 65.0646 18.2777 66.6391 18.2777C68.2717 18.2777 69.1842 19.3905 69.1842 20.643V25.9936H67.4666ZM142.891 29.2424L143.101 29.9746L143.307 29.2424H143.481L143.615 30.1593H143.481L143.378 29.4101L143.168 30.1593H143.016L142.81 29.4155L142.716 30.1593H142.587L142.721 29.2424H142.891ZM142.461 29.2424V29.3596H142.188V30.1593H142.054V29.3596H141.786V29.2424H142.461ZM120.405 9.84064L124.65 16.7904C125.258 17.7132 125.75 17.9757 127.316 17.9757H131.14C127.606 13.5644 125.933 11.3056 125.388 10.8023C124.9 10.3269 124.413 9.84064 123.223 9.84064H120.405ZM132.187 18.3394C130.442 18.3394 128.747 18.5125 127.902 18.9151C127.181 19.3011 126.989 19.5413 126.989 19.9832C126.989 20.3858 127.065 20.7266 127.316 21.1238L129.413 24.5904C129.413 24.5904 129.266 24.182 129.266 23.7182C129.266 21.5206 131.659 20.0727 134.651 20.0727C135.591 20.0727 135.993 20.2346 135.993 20.2346C135.703 19.2505 135.023 18.3394 132.187 18.3394ZM133.296 20.643C132.437 20.8049 131.677 21.118 131.109 21.5711C130.245 22.2475 129.767 23.2038 129.861 24.5569C129.861 24.6911 129.923 25.0713 129.99 25.3786C130.044 25.5016 130.044 25.5074 130.044 25.6022L131.744 28.4314C132.464 29.589 133.654 30.12 135.143 30.12H141.137L134.115 21.6047L133.296 20.643Z" fill="#909090"/>
</svg>
