<svg width="142" height="40" viewBox="0 0 142 40" fill="none" xmlns="http://www.w3.org/2000/svg">
<g clip-path="url(#clip0_56_615)">
<path d="M67.8911 31.2897H63.5003C63.4725 31.2897 63.4725 31.2897 63.4586 31.2758L59.6791 26.6627L55.8997 31.2758C55.8858 31.2897 55.8719 31.2897 55.858 31.2897H52.3426C52.3148 31.2897 52.3009 31.2758 52.287 31.2619C52.287 31.248 52.287 31.2203 52.3009 31.2064L57.8728 24.37L52.3704 17.6031C52.3565 17.5753 52.3565 17.5614 52.3565 17.5336C52.3703 17.5198 52.3842 17.5059 52.3981 17.5059H56.789C56.8029 17.5059 56.8168 17.5198 56.8307 17.5336L60.1516 21.6466L63.5281 17.5336C63.542 17.5198 63.5558 17.5059 63.5697 17.5059H67.1408C67.1547 17.5059 67.1825 17.5198 67.1963 17.5336C67.2102 17.5614 67.1963 17.5753 67.1825 17.6031L61.9718 23.8698L67.9467 31.2064C67.9606 31.2203 67.9606 31.248 67.9606 31.2619C67.9328 31.2897 67.9189 31.2897 67.8911 31.2897Z" fill="#909090"/>
<path d="M91.6377 19.9236C89.6924 19.9236 88.3724 21.1047 87.9833 23.1472H94.5973V23.0083C94.5973 21.3826 93.3885 19.9236 91.6377 19.9236ZM98.0016 25.2593C97.9877 25.2732 97.9738 25.2871 97.9599 25.2871H87.9138C88.1223 27.6214 89.6368 28.9554 92.0962 28.9554C93.6108 28.9554 95.2226 28.4412 97.4875 27.2324C97.5292 27.2046 97.5709 27.2463 97.5709 27.288V30.3726C97.5709 30.4004 97.557 30.4143 97.5431 30.4143C95.431 31.3036 93.3051 31.915 91.6377 31.915C87.3163 31.915 84.1761 28.7608 84.1761 24.4256C84.1761 20.0903 87.3163 16.9362 91.6377 16.9362C95.5839 16.9362 98.1128 19.5901 98.1128 23.2445C98.1128 23.842 98.0155 25.2176 98.0016 25.2593Z" fill="#909090"/>
<path d="M118.4 14.6435C117.163 14.6435 116.162 13.6569 116.162 12.4481C116.162 11.1975 117.163 10.1832 118.4 10.1832C119.636 10.1832 120.637 11.1975 120.637 12.4481C120.637 13.6569 119.636 14.6435 118.4 14.6435ZM116.593 31.2897C116.551 31.2897 116.538 31.2758 116.538 31.2341V17.5475C116.538 17.5197 116.551 17.492 116.579 17.492H120.206C120.234 17.492 120.248 17.5197 120.248 17.5475V31.2341C120.248 31.2758 120.22 31.2897 120.192 31.2897H116.593Z" fill="#909090"/>
<path d="M74.5329 29.2333C73.8799 29.2333 73.2129 29.136 72.4348 28.9415L72.4487 20.1598C73.3518 19.868 74.13 19.743 74.9081 19.743C77.4231 19.743 79.1044 21.591 79.1044 24.3561C79.1044 27.3157 77.3119 29.2333 74.5329 29.2333ZM75.5195 16.9362C74.4912 16.9362 73.463 17.1168 72.3792 17.492H68.7665C68.7387 17.492 68.7109 17.5197 68.7109 17.5475V39.988C69.7947 39.8352 71.1286 39.4461 72.4348 38.529V31.7066C73.3241 31.8316 74.0605 31.915 74.7691 31.915C79.7158 31.915 82.9116 28.9554 82.9116 24.37C82.9116 19.9931 79.8686 16.9362 75.5195 16.9362Z" fill="#909090"/>
<path d="M109.993 28.0939C108.868 28.6914 107.853 28.9693 106.908 28.9693C104.671 28.9693 103.323 27.3852 103.323 24.7313C103.323 21.6744 105.032 19.6874 107.686 19.6874C108.423 19.6874 109.132 19.868 109.993 20.2571V28.0939ZM109.993 10.2527V17.4086C108.937 17.1029 108.006 16.964 107.061 16.964C102.754 16.964 99.5162 20.2015 99.5162 24.509C99.5162 28.7886 102.379 31.9011 106.325 31.9011C107.686 31.9011 108.965 31.5537 110.465 30.7895V32.0262C111.452 31.8316 112.591 31.4426 113.717 30.6367V8.77979C112.619 8.93263 111.313 9.3078 109.993 10.2527Z" fill="#909090"/>
<path d="M132.823 28.0661C131.725 28.6913 130.794 28.997 129.96 28.997C127.556 28.997 126.125 27.413 126.125 24.759C126.125 21.7438 127.82 19.7151 130.335 19.7151C131.002 19.7151 131.822 19.9791 132.823 20.5072V28.0661ZM136.546 17.3252C136.546 17.2418 136.477 17.1724 136.394 17.1724H133.462C133.378 17.1724 133.295 17.2418 133.295 17.3252V17.8254H133.225C131.878 17.2279 130.71 16.9639 129.585 16.9639C125.528 16.9639 122.346 20.3265 122.346 24.634C122.346 28.9831 125.194 31.9011 129.432 31.9011C130.558 31.9011 132.017 31.8177 133.378 30.2615V32.0261C134.337 31.8177 135.476 31.4148 136.546 30.6366V17.3252Z" fill="#909090"/>
<path d="M42.3104 27.8715H51.4116C51.2726 28.8859 50.9253 30.0808 50.1471 31.2897H40.6846C39.5313 31.2897 38.5726 30.3865 38.4614 29.261C38.4614 29.2471 38.4475 29.2332 38.4475 29.2055V11.2531C38.4475 11.2392 38.4614 11.2253 38.4614 11.2114C38.5726 10.072 39.5313 9.16882 40.6846 9.16882H51.3977C51.2587 10.1832 50.9114 11.4059 50.1194 12.6148H42.3104V17.5058H50.0499C50.0777 17.5058 50.1055 17.5336 50.1055 17.5614V20.9518C50.1055 20.9796 50.0777 21.0074 50.0499 21.0074H42.3104V27.8715Z" fill="#909090"/>
<path d="M30.9164 31.5815C30.0133 31.5815 29.4575 30.8728 29.4575 30.0114C29.4575 29.0943 30.0966 28.4412 30.9164 28.4412C31.7223 28.4412 32.3615 29.0804 32.3615 30.0114C32.3615 30.9423 31.7223 31.5815 30.9164 31.5815ZM30.9164 28.2745C29.9994 28.2745 29.2073 28.9692 29.2073 30.0114C29.2073 30.9979 29.916 31.7482 30.9164 31.7482C31.8196 31.7482 32.6116 31.0535 32.6116 30.0114C32.6116 28.9692 31.8335 28.2745 30.9164 28.2745Z" fill="#909090"/>
<path d="M30.5135 29.8724V29.2332H30.9442C31.1665 29.2332 31.4167 29.261 31.4167 29.525C31.4167 29.8446 31.1804 29.8585 30.9164 29.8585C30.9025 29.8724 30.5135 29.8724 30.5135 29.8724ZM31.7223 29.5667C31.7223 29.1499 31.4722 28.9692 30.972 28.9692H30.1939V31.0257H30.5274V30.1503H30.847L31.375 31.0257H31.764L31.1943 30.1225C31.5 30.0947 31.7223 29.9419 31.7223 29.5667Z" fill="#909090"/>
<path d="M139.548 19.7707C138.645 19.7707 138.089 19.0621 138.089 18.2006C138.089 17.2835 138.728 16.6304 139.548 16.6304C140.354 16.6304 140.993 17.2696 140.993 18.2006C140.993 19.1315 140.354 19.7707 139.548 19.7707ZM139.548 16.4776C138.631 16.4776 137.839 17.1724 137.839 18.2145C137.839 19.201 138.547 19.9514 139.548 19.9514C140.451 19.9514 141.243 19.2566 141.243 18.2145C141.243 17.1585 140.451 16.4776 139.548 16.4776Z" fill="#909090"/>
<path d="M139.131 18.0616V17.4364H139.562C139.784 17.4364 140.034 17.4642 140.034 17.7282C140.034 18.0477 139.798 18.0616 139.534 18.0616H139.131ZM140.354 17.7698C140.354 17.353 140.104 17.1724 139.603 17.1724H138.825V19.2288H139.159V18.3534H139.478L140.006 19.2288H140.395L139.826 18.3257C140.117 18.2979 140.354 18.145 140.354 17.7698Z" fill="#909090"/>
<path d="M19.1751 12.6009L18.5221 10.7389L12.9085 3.24952L13.9089 2.99941L23.566 11.3503L29.249 9.72461C29.916 9.55787 30.6802 9.51618 31.2499 9.51618C29.4713 5.66726 26.1921 2.49919 21.8847 0.97074C13.367 -2.07227 3.98787 2.38803 0.958758 10.9196C0.0138964 13.5596 -0.194529 16.2831 0.194532 18.8675L13.7978 14.1432L19.1751 12.6009Z" fill="#909090"/>
<path d="M31.8613 10.9891C31.3611 11.3087 30.6246 11.7394 29.9021 11.9756L24.2051 13.6013L20.4118 25.8012L19.4252 26.1208L20.2312 16.8111L19.7865 14.8797L14.4508 16.4081L0.333485 19.7013C1.45898 25.1203 5.29401 29.8585 10.8937 31.8455C19.4252 34.8885 28.7905 30.4282 31.8335 21.8967C33.1396 18.2423 33.0563 14.4073 31.8613 10.9891Z" fill="#909090"/>
<path d="M19.7726 14.8658L20.2173 16.7972L19.4114 26.1069L20.3979 25.7873L24.1912 13.5874L29.8882 11.9617C30.6107 11.7255 31.3472 11.3087 31.8474 10.9752C31.6668 10.475 31.4722 9.98863 31.2499 9.5023C30.6663 9.5023 29.916 9.53009 29.249 9.71073L23.566 11.3364L13.9089 2.98553L12.9085 3.23565L18.5082 10.7251L19.1612 12.587L13.7839 14.1293L0.180637 18.8537C0.222322 19.1316 0.277903 19.4233 0.333483 19.7013L14.4369 16.3803L19.7726 14.8658Z" fill="#909090"/>
</g>
<defs>
<clipPath id="clip0_56_615">
<rect width="141.243" height="40" fill="white"/>
</clipPath>
</defs>
</svg>
