<svg width="156" height="28" viewBox="0 0 156 28" fill="none" xmlns="http://www.w3.org/2000/svg">
<g clip-path="url(#clip0_56_611)">
<path d="M17.0751 22.964C17.4332 22.964 17.7744 22.8787 18.0985 22.6911L21.8342 20.5417C22.5848 20.1152 23.4548 19.9277 24.3247 20.03C28.8621 20.5588 32.0349 21.4117 32.9731 21.6847C33.1608 21.7358 33.3825 21.6676 33.5019 21.514C33.6555 21.3264 33.8431 21.0194 33.9966 20.5759C34.1331 20.1494 34.1501 19.7912 34.1331 19.5353C34.116 19.3306 33.9796 19.143 33.7749 19.0918C32.3078 18.6653 25.8088 16.9084 17.0751 16.9084C8.34139 16.9084 1.84223 18.6654 0.375304 19.0918C0.170603 19.143 0.0341085 19.3306 0.0171 19.5354C5.90552e-06 19.7741 0.0171007 20.1324 0.153511 20.5759C0.289922 21.0194 0.494708 21.3264 0.648213 21.514C0.767615 21.6676 0.989408 21.7358 1.17702 21.6846C2.11522 21.4117 5.30506 20.5588 9.82541 20.03C10.6953 19.9277 11.5653 20.1153 12.3158 20.5417L16.0516 22.6911C16.3757 22.8787 16.7339 22.964 17.0751 22.964ZM10.8489 10.8699C11.0536 11.228 11.3777 11.4669 11.7529 11.5692C12.1281 11.6715 12.5205 11.6204 12.8787 11.4157C13.237 11.211 13.4758 10.8869 13.5782 10.5116C13.6805 10.1363 13.6293 9.74411 13.4246 9.38582L10.0642 3.56905C9.96191 3.38145 9.74011 3.31324 9.53541 3.33025C9.2625 3.34734 8.8872 3.48376 8.4437 3.73965C8.00019 3.99555 7.69318 4.25136 7.53968 4.47316C7.42019 4.64376 7.38609 4.86547 7.4884 5.05307L10.8489 10.8699ZM7.77848 15.0321C8.1366 15.2368 8.546 15.2709 8.9043 15.1856C9.27951 15.0832 9.60361 14.8444 9.80832 14.4862C10.013 14.128 10.0472 13.7186 9.96191 13.3604C9.87661 13.0021 9.62071 12.661 9.2625 12.4563L3.44574 9.09582C3.25805 8.99351 3.03633 9.02761 2.86574 9.1471C2.64403 9.30052 2.38813 9.60761 2.13223 10.0511C1.87634 10.4946 1.73992 10.8699 1.72283 11.1428C1.70574 11.3645 1.79112 11.5693 1.96163 11.6716L7.77848 15.0321ZM18.5591 8.8059C18.5591 9.2153 18.3885 9.59052 18.1326 9.86343C17.8597 10.1364 17.5015 10.2899 17.0751 10.2899C16.6657 10.2899 16.2905 10.1193 16.0175 9.86343C15.7446 9.59052 15.591 9.23231 15.591 8.8059V2.10204C15.591 1.88033 15.7275 1.70974 15.9322 1.62444C16.171 1.50503 16.5633 1.43683 17.0751 1.43683C17.5869 1.43683 17.9791 1.50503 18.2179 1.62444C18.4056 1.72683 18.5591 1.88033 18.5591 2.10204V8.8059ZM23.3013 10.8699C23.0965 11.228 22.7724 11.4669 22.3971 11.5692C22.0218 11.6715 21.6295 11.6204 21.2713 11.4157C20.9131 11.211 20.6743 10.8869 20.5719 10.5116C20.4695 10.1363 20.5207 9.74411 20.7254 9.38582L24.0859 3.56905C24.1883 3.38145 24.41 3.31324 24.6147 3.33025C24.8876 3.34734 25.2629 3.48376 25.7064 3.73965C26.1499 3.99555 26.457 4.25136 26.6105 4.47316C26.7299 4.64376 26.764 4.86547 26.6617 5.05307L23.3013 10.8699ZM26.3717 15.0321C26.0135 15.2368 25.6041 15.2709 25.2459 15.1856C24.8706 15.0832 24.5465 14.8444 24.3418 14.4862C24.1371 14.128 24.103 13.7186 24.1883 13.3604C24.2906 12.9851 24.5294 12.661 24.8876 12.4563L30.7044 9.09582C30.892 8.99351 31.1138 9.02761 31.2843 9.1471C31.5061 9.30052 31.7619 9.60761 32.0178 10.0511C32.2737 10.4946 32.4102 10.8699 32.4272 11.1428C32.4443 11.3645 32.359 11.5693 32.1884 11.6716L26.3717 15.0321Z" fill="#909090"/>
<path d="M63.4728 10.4093H66.2702C66.3726 10.4093 66.4579 10.4776 66.5091 10.5629L69.2895 17.6931L71.9848 10.5629C72.0189 10.4605 72.1212 10.4093 72.2236 10.4093H74.9699C75.1575 10.4093 75.2769 10.597 75.1916 10.7505L68.3684 26.4096C68.3342 26.4949 68.2319 26.5631 68.1466 26.5631H65.7244C65.5539 26.5631 65.4174 26.3755 65.5027 26.222L67.8396 20.7464L63.2681 10.7505C63.1658 10.5969 63.2852 10.4093 63.4728 10.4093ZM104.77 11.9958V10.6652C104.77 10.5287 104.89 10.4093 105.026 10.4093H107.5C107.636 10.4093 107.755 10.5287 107.755 10.6652V21.2923C107.755 21.4287 107.636 21.5481 107.499 21.5481H105.026C104.89 21.5481 104.77 21.4287 104.77 21.2923V19.8935C104.241 20.7123 103.081 21.787 101.188 21.787C97.5717 21.787 95.6953 19.0236 95.6953 15.936C95.6953 11.9104 98.4928 10.1875 101.103 10.1875C102.826 10.1704 104.02 10.9892 104.77 11.9957V11.9958ZM98.6804 15.9532C98.6804 17.8637 99.8575 19.3306 101.751 19.3306C103.644 19.3306 104.855 18.0513 104.855 16.0896C104.855 14.1279 103.678 12.6269 101.666 12.6269C99.7722 12.6269 98.6804 14.0939 98.6804 15.9532ZM109.99 21.2924V10.6652C109.99 10.5287 110.109 10.4093 110.246 10.4093H112.719C112.856 10.4093 112.975 10.5287 112.975 10.6652V12.1151C113.555 11.1087 114.647 10.1875 116.506 10.1875C118.417 10.1875 120.549 11.1257 120.549 15.4413V21.2923C120.549 21.4287 120.429 21.5481 120.293 21.5481H117.819C117.683 21.5481 117.564 21.4287 117.564 21.2923V15.4925C117.564 14.452 117.308 12.6609 115.466 12.6609C113.623 12.6609 112.975 14.2814 112.975 15.7825V21.2923C112.975 21.4287 112.856 21.5481 112.719 21.5481H110.246C110.092 21.531 109.99 21.4287 109.99 21.2923L109.99 21.2924ZM122.664 21.2924V10.6652C122.664 10.5287 122.783 10.4093 122.92 10.4093H125.393C125.53 10.4093 125.649 10.5287 125.649 10.6652V12.1151C126.229 11.1087 127.321 10.1875 129.18 10.1875C131.091 10.1875 133.223 11.1257 133.223 15.4413V21.2923C133.223 21.4287 133.104 21.5481 132.967 21.5481H130.494C130.357 21.5481 130.238 21.4287 130.238 21.2923V15.4925C130.238 14.452 129.982 12.6609 128.14 12.6609C126.297 12.6609 125.649 14.2814 125.649 15.7825V21.2923C125.649 21.4287 125.53 21.5481 125.393 21.5481H122.92C122.783 21.531 122.664 21.4288 122.664 21.2924ZM148.643 10.4093H151.049C151.185 10.4093 151.304 10.5288 151.304 10.6652V12.8657C151.782 10.6823 153.658 9.93174 155.023 10.2558C155.142 10.2729 155.211 10.3752 155.211 10.4946V12.9169C155.211 13.0704 155.074 13.1898 154.904 13.1557C152.379 12.661 151.356 14.0257 151.356 15.9361V21.2924C151.356 21.4288 151.236 21.5482 151.1 21.5482H148.626C148.49 21.5482 148.37 21.4288 148.37 21.2924V10.6652C148.387 10.5287 148.507 10.4093 148.643 10.4093ZM47.0801 12.8316C46.3125 12.5757 45.9031 12.4222 45.289 12.2175C44.6578 11.9958 43.5832 11.3816 43.5832 10.3923C43.5832 9.40294 44.2655 8.77174 45.6472 8.77174C46.9095 8.77174 47.6088 9.38584 48.0694 10.3752C48.1376 10.5117 48.2912 10.5629 48.4276 10.4946L50.4575 9.31764C50.5598 9.24943 50.611 9.11294 50.5598 8.99353C49.9458 7.64592 48.5129 6.02541 45.6813 6.02541C42.5255 6.02541 40.5468 7.90182 40.5468 10.3752C40.5468 12.8317 42.1673 14.1109 44.3679 14.8615C45.1696 15.1344 45.4937 15.2538 46.176 15.4756C47.4724 15.9191 48.0694 16.499 48.0694 17.3008C48.0694 18.1026 47.5577 19.0577 45.5449 19.0577C43.7026 19.0577 43.0544 18.0854 42.6791 17.1643C42.6279 17.0278 42.4573 16.9596 42.3209 17.0449L40.1886 18.2731C40.0863 18.3413 40.0351 18.4607 40.0863 18.5801C40.9051 20.593 43.1396 21.787 45.6472 21.787C48.5982 21.787 51.0886 20.286 51.0886 17.2496C51.0886 14.2133 47.8476 13.0875 47.0801 12.8317V12.8316ZM63.3705 18.6313C63.3022 18.5119 63.1317 18.4607 63.0122 18.546C62.057 19.2453 60.9311 19.2624 60.0782 17.949C59.3618 16.8402 58.4919 15.4755 58.4919 15.4755L62.2446 10.8188C62.3811 10.6482 62.2617 10.4093 62.057 10.4093H59.1231C59.0378 10.4093 58.9695 10.4435 58.9184 10.5117L55.6774 14.9638V6.0084C55.6774 5.8719 55.558 5.7525 55.4215 5.7525H52.948C52.8116 5.7525 52.6922 5.8719 52.6922 6.0084V21.2924C52.6922 21.4288 52.8116 21.5482 52.948 21.5482H55.4386C55.575 21.5482 55.6944 21.4288 55.6944 21.2924V16.3284C55.6944 16.3284 57.3491 18.9383 57.9802 19.9106C58.8331 21.2411 60.0272 21.787 61.3235 21.787C62.5517 21.787 63.3364 21.4629 64.2746 20.5417C64.3599 20.4564 64.377 20.337 64.3258 20.2347L63.3705 18.6313ZM81.1278 15.1173C80.3431 14.8274 80.0702 14.725 79.4731 14.5033C78.876 14.2816 78.3473 13.9574 78.3473 13.4798C78.3473 13.0022 78.7909 12.4734 79.6949 12.4734C80.4796 12.4734 80.9572 12.7804 81.2302 13.3263C81.2984 13.4627 81.4519 13.4969 81.5713 13.4286L83.3112 12.4222C83.4306 12.354 83.4648 12.2005 83.3965 12.0811C82.9189 11.2452 81.9807 10.1876 79.7119 10.1876C76.9316 10.1876 75.4987 11.791 75.4987 13.5651C75.4987 15.3392 76.9486 16.1749 78.279 16.7037C79.7802 17.3178 79.8825 17.3519 80.0702 17.4202C80.5308 17.6078 81.0937 17.8978 81.0937 18.4266C81.0937 18.9554 80.4796 19.433 79.5414 19.433C78.6714 19.433 77.6821 19.0748 77.2727 18.0684C77.2215 17.9319 77.0509 17.8637 76.9145 17.949L75.1575 18.9554C75.0552 19.0236 75.004 19.143 75.0552 19.2624C75.5669 20.593 77.0851 21.77 79.5414 21.77C82.2025 21.77 83.9765 20.3542 83.9765 18.3583C83.9765 16.3625 82.6119 15.6632 81.1278 15.1173ZM91.1238 12.8316C92.2326 12.8316 93.0513 13.1728 93.819 13.7186C93.9384 13.8039 94.1089 13.7698 94.1771 13.6504L95.2006 11.8764C95.2689 11.757 95.2348 11.6205 95.1153 11.5523C94.0578 10.8358 92.7444 10.1705 90.9703 10.1705C89.2132 10.1705 87.5927 10.6482 86.4328 11.8252C85.2729 12.9851 84.7441 14.3668 84.7441 16.0044C84.7441 17.983 85.5629 19.2454 86.4499 20.1324C87.3369 21.0195 88.9403 21.77 90.9874 21.77C92.8296 21.77 94.1942 21.0024 95.1324 20.3883C95.2347 20.3201 95.2689 20.1665 95.2006 20.0642L94.1942 18.3072C94.126 18.1878 93.9554 18.1366 93.8361 18.2219C93.1708 18.6995 92.2156 19.1089 91.1409 19.1089C89.9297 19.1089 87.7292 18.4266 87.7292 15.9702C87.7292 13.5138 89.9127 12.8316 91.1238 12.8316ZM141.308 19.3136C140.319 19.3136 139.381 19.0748 138.698 18.529C138.016 17.9832 137.692 17.4202 137.692 16.7549H146.528C146.665 16.7549 146.784 16.6355 146.784 16.499C146.733 13.8721 145.88 12.644 145.061 11.8081C144.208 10.9552 142.758 10.1705 140.848 10.1705C138.937 10.1705 137.47 10.8699 136.464 11.8594C135.475 12.8487 134.724 14.1109 134.724 16.0214C134.724 17.9319 135.492 19.1942 136.43 20.1324C137.368 21.0707 138.903 21.77 141.104 21.77C143.185 21.77 144.942 21.0365 146.204 19.5865C146.306 19.4671 146.272 19.2795 146.136 19.2113L144.379 18.1878C144.294 18.1365 144.174 18.1365 144.089 18.2219C143.219 19.0407 142.11 19.3136 141.308 19.3136ZM140.831 12.5587C142.247 12.5587 143.543 13.4116 143.748 14.9467H137.794C138.187 13.2922 139.415 12.5587 140.831 12.5587Z" fill="#909090"/>
</g>
<defs>
<clipPath id="clip0_56_611">
<rect width="155.211" height="28" fill="white"/>
</clipPath>
</defs>
</svg>
