<svg width="126" height="28" viewBox="0 0 126 28" fill="none" xmlns="http://www.w3.org/2000/svg">
<g clip-path="url(#clip0_56_595)">
<mask id="mask0_56_595" style="mask-type:luminance" maskUnits="userSpaceOnUse" x="0" y="7" width="108" height="22">
<path d="M0 7.84894H107.819V28.0005H0V7.84894Z" fill="white"/>
</mask>
<g mask="url(#mask0_56_595)">
<path d="M100.803 21.2796C102.063 20.9068 103.609 20.8891 104.624 20.8891H104.926V21.0278C104.926 22.1784 104.526 23.4096 103.793 24.302C103.182 25.0427 102.335 25.5445 101.29 25.5445C100.485 25.5445 99.8737 25.3105 99.4525 24.9539C98.9845 24.5586 98.7473 24.0067 98.7473 23.4677C98.7473 22.2526 99.6639 21.6152 100.803 21.2796ZM97.3773 26.7628C98.331 27.5826 99.6526 28.0005 100.969 28.0005C102.092 28.0005 103.098 27.6584 103.926 27.1114C104.331 26.8435 104.692 26.5256 105.005 26.1738V27.681H107.682V18.6654C107.682 16.8726 107.192 15.4849 106.259 14.5312C105.317 13.5694 103.947 13.0724 102.197 13.0724C101.261 13.0724 100.295 13.2338 99.4186 13.5129C98.5262 13.7969 97.7259 14.2068 97.1449 14.6974L96.84 14.9556L97.0449 15.2977L97.8727 16.679L98.1374 17.1195L98.5521 16.8161C99.0668 16.4418 99.6461 16.1432 100.258 15.9383C100.847 15.7414 101.468 15.6349 102.089 15.6349C102.975 15.6349 103.732 15.8415 104.227 16.3579C104.652 16.8016 104.908 17.4955 104.924 18.5121H104.597C103.283 18.5121 101.187 18.5815 99.3976 19.2205C97.5048 19.895 95.9637 21.1827 95.9637 23.6275C95.9637 24.9781 96.5221 26.027 97.3773 26.7628ZM86.3543 27.681H84.0693V8.08453H86.8255V18.4863H88.2859L92.1442 13.5726L92.2862 13.3919H95.6846L95.0681 14.1584L90.5999 19.7208L95.5684 26.942L96.0767 27.681H92.7444L92.6041 27.4712L88.2907 21.0214H86.8255V27.681H86.3543ZM70.6936 17.0324C69.8496 17.8941 69.3284 19.0963 69.3284 20.4695C69.3284 21.8912 69.8464 23.1192 70.6855 23.9922C71.5407 24.8829 72.7332 25.4106 74.0581 25.4106C75.3845 25.4106 76.5867 24.8813 77.4484 23.9889C78.2924 23.1143 78.8136 21.8895 78.8136 20.4695C78.8136 19.0995 78.2891 17.8973 77.4403 17.0356C76.5802 16.161 75.3813 15.6349 74.0581 15.6349C72.7381 15.6349 71.5472 16.161 70.6936 17.0324ZM68.6942 25.8172C67.3468 24.4714 66.519 22.6012 66.519 20.4695C66.519 18.3749 67.3484 16.537 68.6974 15.2154C70.0626 13.8776 71.9571 13.0724 74.0581 13.0724C76.1607 13.0724 78.0632 13.8792 79.4348 15.217C80.7887 16.5402 81.6246 18.3766 81.6246 20.4695C81.6246 22.5996 80.7903 24.4682 79.4397 25.814C78.0681 27.1792 76.1623 28.0005 74.0581 28.0005C71.9555 28.0005 70.0594 27.1808 68.6942 25.8172ZM62.2024 27.1614C61.4536 26.6305 60.8647 25.6946 60.8647 24.0519V8.08453H63.6224V23.6533C63.6224 24.3827 63.7693 24.778 63.9774 24.9813C64.1598 25.1572 64.4228 25.1992 64.6697 25.1992C64.7326 25.1992 64.8101 25.1992 64.844 25.1976C64.8988 25.1943 64.9602 25.1895 65.0215 25.1798L65.5685 25.0895V27.6617L65.1732 27.7262C65.0876 27.7407 64.986 27.7553 64.8553 27.7665C64.7213 27.7795 64.5777 27.7875 64.4309 27.7875C63.8161 27.7875 62.9431 27.6875 62.2024 27.1614ZM49.5124 16.516C48.9251 17.0437 48.4732 17.7763 48.2328 18.6977H55.5734C55.4604 17.7392 55.1232 17.0033 54.6423 16.4821C54.0372 15.8253 53.19 15.5026 52.267 15.5026C51.2245 15.5026 50.2547 15.8495 49.5124 16.516ZM47.334 25.8802C46.0075 24.565 45.2088 22.7174 45.2088 20.5502C45.2088 18.3056 45.9623 16.4886 47.1791 15.2041C48.4845 13.826 50.3177 13.0724 52.3202 13.0724C54.2244 13.0724 55.6928 13.7711 56.7127 14.8926C57.8293 16.1206 58.3941 17.844 58.3941 19.6998C58.3941 19.8466 58.386 20.0112 58.3764 20.1807C58.3667 20.3097 58.3522 20.4776 58.3376 20.6454L58.2973 21.0746H48.0714C48.1941 22.3446 48.6749 23.3548 49.3866 24.0761C50.2483 24.9507 51.4569 25.4106 52.7753 25.4106C53.445 25.4106 54.1259 25.2718 54.7666 25.0233C55.4217 24.7667 56.0317 24.3972 56.54 23.9405L56.9644 23.5597L57.2581 24.0486L58.2844 25.7591L57.9988 26.0189C57.3307 26.6257 56.4819 27.1211 55.5686 27.4632C54.6472 27.8069 53.6596 27.9989 52.7204 27.9989C50.5759 28.0005 48.6846 27.2195 47.334 25.8802ZM39.0122 27.681H36.7176L36.5998 27.3793L31.4264 14.0325L31.1762 13.3919H34.1357L34.2519 13.6969L37.9585 23.4887L37.9601 23.4935C37.9779 23.5403 37.994 23.5904 38.0118 23.6404C38.0279 23.5904 38.0457 23.5403 38.0634 23.4935L38.065 23.4887L41.7716 13.6969L41.8878 13.3919H44.8183L44.573 14.0309L39.4528 27.3777L39.335 27.681H39.0122ZM23.0013 21.2796C21.8621 21.6152 20.9471 22.2526 20.9471 23.4677C20.9471 24.0067 21.1843 24.5586 21.6523 24.9539C22.0719 25.3089 22.6835 25.5445 23.4887 25.5445C24.5343 25.5445 25.3815 25.0427 25.9915 24.302C26.7257 23.4096 27.1243 22.1784 27.1243 21.0278V20.8891H26.8225C25.8091 20.8891 24.2632 20.9068 23.0013 21.2796ZM19.5771 26.7628C18.7219 26.027 18.1635 24.9781 18.1635 23.6275C18.1635 21.1827 19.7046 19.895 21.5974 19.2205C23.387 18.5815 25.4832 18.5121 26.7967 18.5121H27.1243C27.1082 17.4955 26.8516 16.8016 26.4256 16.3579C25.9302 15.8415 25.175 15.6349 24.2891 15.6349C23.6662 15.6349 23.0465 15.7414 22.4575 15.9383C21.846 16.1432 21.265 16.4418 20.7519 16.8161L20.3356 17.1195L20.0725 16.6774L19.2447 15.2977L19.0398 14.9556L19.3448 14.6974C19.9257 14.2052 20.7261 13.7969 21.6184 13.5113C22.4947 13.2338 23.4612 13.0724 24.3956 13.0724C26.1464 13.0724 27.5164 13.5678 28.4572 14.5312C29.3915 15.4849 29.8821 16.8726 29.8821 18.6654V27.681H27.205V26.1738C26.8919 26.5256 26.5288 26.8435 26.1254 27.1114C25.296 27.6584 24.2907 27.9989 23.1692 27.9989C21.8524 28.0005 20.5308 27.5826 19.5771 26.7628ZM12.2333 27.681H9.94832V13.3919H12.6787V15.3267C12.9433 14.962 13.2434 14.6328 13.5759 14.3488C14.3698 13.6727 15.3412 13.258 16.4482 13.258C16.5838 13.258 16.7306 13.266 16.8791 13.2838C17.0178 13.2983 17.155 13.3209 17.2809 13.3532L17.6407 13.4419V16.2401L17.0211 16.0351C17.0146 16.0335 16.9533 16.027 16.8629 16.0206C16.7548 16.0125 16.6225 16.0061 16.5015 16.0061C15.3364 16.0061 14.4698 16.5902 13.8663 17.4439H13.8647C13.0659 18.5734 12.7061 20.1645 12.7061 21.5571V27.681H12.2333ZM3.73082 26.8935C2.63836 26.1319 1.76052 24.7699 1.76052 22.3543V15.9528H0V13.4968H1.78634V9.70305H4.51668V13.4968H7.9054V15.9528H4.51668V22.1671C4.51668 23.2902 4.79262 24.0035 5.1799 24.4537C5.73823 25.1008 6.55637 25.225 7.08727 25.225C7.17763 25.225 7.26961 25.225 7.34223 25.2202H7.34384C7.42453 25.2153 7.50844 25.204 7.5988 25.1847L8.17166 25.0588V27.6617L7.77631 27.7262C7.67303 27.744 7.53587 27.7601 7.3745 27.7714C7.23734 27.7811 7.08565 27.7875 6.9259 27.7875C6.0884 27.7875 4.8136 27.6471 3.73082 26.8935Z" fill="#909090"/>
</g>
<path d="M118.126 14.7861C118.142 14.7764 118.158 14.7668 118.174 14.7571C117.455 12.6077 120.446 8.97527 125.996 2.89978C121.51 3.45004 118.039 4.5893 115.584 6.31593C115.823 9.83698 116.67 12.6609 118.126 14.7861Z" fill="#909090"/>
<path d="M118.126 14.7862C118.142 14.7765 118.158 14.7668 118.174 14.7571C118.15 14.6845 118.131 14.6103 118.115 14.5344C117.414 11.8719 117.13 8.7962 117.263 5.30743C116.659 5.61887 116.099 5.95452 115.584 6.31598C115.823 9.83702 116.67 12.661 118.126 14.7862Z" fill="#909090"/>
<path d="M119.974 17.8683C121.158 18.475 122.141 18.7881 123.011 18.638C117.163 16.345 114.736 10.1323 115.73 -0.00158691C113.629 0.411514 111.925 1.37165 110.737 2.97242C109.703 4.36825 110.035 6.14007 110.882 8.50733C110.997 8.82361 111.132 10.5341 110.425 11.1699C110.164 11.4023 109.746 11.2183 109.385 10.9827C108.142 10.2759 107.108 10.2824 106.285 11.0037C104.016 10.6212 102.373 10.4147 101.355 10.3792C102.807 10.8359 104.486 11.3071 106.369 11.8557C107.174 12.0897 107.863 12.6432 108.407 13.4791C109.52 15.1896 112.675 16.1174 115.73 16.558C116.875 16.7226 118.462 17.0937 119.974 17.8683Z" fill="#909090"/>
</g>
<defs>
<clipPath id="clip0_56_595">
<rect width="125.996" height="28" fill="white"/>
</clipPath>
</defs>
</svg>
